# xmcd
#
# Track frame offsets: 
#        150
#        12436
#        23680
#        39850
#        51767
#        64025
#        73142
#        83584
#        92649
#        106023
#        115927
#        129856
#        143029
#        149908
#        160154
#        163392
#        174216
#        176207
#        186543
#        196709
#        199893
#        203892
#        213519
#        221986
#        232163
#        245438
#
# Disc length: 3439 seconds
#
# Revision: 0
# Processed by: cddbd v1.5.2PL0 Copyright (c) Steve Scherf et al.
# Submitted via: ExactAudioCopy v1.3
#
DISCID=810d6d1a
DTITLE=Porter Wagoner - A Rare Slice Of Country
DYEAR=2000
DGENRE=Country
TTITLE0=I Love No One But You
TTITLE1=River of Love
TTITLE2=Wedding Bells
TTITLE3=Walk Softly
TTITLE4=Let Old Mother Nature Have Her Way
TTITLE5=Wondering
TTITLE6=Baby, We're Really In Love
TTITLE7=I Betcha My Heart, I Love You
TTITLE8=Since You Went Away
TTITLE9=I Want To Be With You Always
TTITLE10=Be Glad That You Ain't Me
TTITLE11=Love At First Sight
TTITLE12=Comedy Chat With Red Foley
TTITLE13=If  You Don't Somebody Else Will
TTITLE14=If You Don't Somebody Else Will (Repise)
TTITLE15=I Thought I Heard You Call My Name
TTITLE16=Comedy Chat With Jim Reeves
TTITLE17=Uncle Pen
TTITLE18=Eat Drink And Be Merry (Tomorrow You'll Cry)
TTITLE19=Comedy Chat With Jim Reeves
TTITLE20=Comedy Chat With Red Foley
TTITLE21=Settin' The Woods On Fire
TTITLE22=Pay Day
TTITLE23=A Satisfied Mind
TTITLE24=Good Morning Neighbor
TTITLE25=Tomorrow We'll Retire
EXTD=
EXTT0=
EXTT1=
EXTT2=
EXTT3=
EXTT4=
EXTT5=
EXTT6=
EXTT7=
EXTT8=
EXTT9=
EXTT10=
EXTT11=
EXTT12=
EXTT13=
EXTT14=
EXTT15=
EXTT16=
EXTT17=
EXTT18=
EXTT19=
EXTT20=
EXTT21=
EXTT22=
EXTT23=
EXTT24=
EXTT25=
PLAYORDER=
